<svg width="184" height="68" viewBox="0 0 184 68" fill="none" xmlns="http://www.w3.org/2000/svg">
<rect x="6.55495" y="1.5" width="137.876" height="65" fill="#090707" stroke="#CF2828" stroke-width="3"/>
<path d="M22.2964 20.9415V15.1583C22.2964 14.5372 22.56 13.9044 23.0874 13.2599C23.7905 12.4161 24.6811 11.9884 25.7593 11.9767V14.4552C25.2788 14.4669 24.9624 14.7364 24.81 15.2638C24.7866 15.3458 24.7749 15.4044 24.7749 15.4395V20.9415C24.7749 21.422 25.0386 21.7501 25.5659 21.9259C25.6479 21.9493 25.7065 21.961 25.7417 21.961V24.4571C25.0737 24.4571 24.4057 24.2169 23.7378 23.7364C22.7886 23.0333 22.3081 22.1017 22.2964 20.9415ZM26.7085 24.4571V21.961C26.896 21.961 27.1069 21.8614 27.3413 21.6622C27.5639 21.463 27.6811 21.2227 27.6929 20.9415V15.4395C27.6929 15.2286 27.5932 15.006 27.394 14.7716C27.2065 14.5724 26.978 14.4669 26.7085 14.4552V11.9767C27.8921 11.9767 28.8413 12.4864 29.5561 13.506C29.9663 14.0919 30.1714 14.6427 30.1714 15.1583V20.9415C30.1714 22.2423 29.5913 23.2384 28.4311 23.9298C27.8218 24.2813 27.2475 24.4571 26.7085 24.4571ZM38.1673 21.7149V14.3497H40.5579V21.4337C40.5814 21.879 40.8509 22.1075 41.3665 22.1192V24.4571C40.2181 24.4571 39.3216 24.006 38.6771 23.1036C38.3372 22.6231 38.1673 22.1602 38.1673 21.7149ZM42.1751 24.4571V22.1192C42.679 22.0606 42.9544 21.8321 43.0013 21.4337V14.3497H45.3919V21.7149C45.3919 22.2657 45.1341 22.8224 44.6185 23.3849C43.9622 24.088 43.1478 24.4454 42.1751 24.4571ZM82.4403 22.0489C82.4403 22.7286 82.7625 23.3028 83.4071 23.7716C83.9579 24.17 84.6258 24.3692 85.411 24.3692V22.2071C84.8133 22.2071 84.4793 22.0665 84.409 21.7852C84.3973 21.7149 84.3914 21.6446 84.3914 21.5743V21.3282C84.4032 21.129 84.4793 20.9942 84.62 20.9239C84.6786 20.8888 84.8954 20.8243 85.2704 20.7306C86.1844 20.4727 86.7997 20.2501 87.1161 20.0626V21.504C87.1161 21.8556 86.952 22.0782 86.6239 22.172C86.5418 22.1954 86.4539 22.2071 86.3602 22.2071V24.3692C87.0868 24.3575 87.6786 24.17 88.1356 23.8067C88.5692 24.1817 89.1434 24.3692 89.8582 24.3692V22.1895C89.5418 22.1661 89.3778 21.9786 89.3661 21.627V17.0392C89.3661 16.3946 89.0965 15.797 88.5575 15.2462C87.9598 14.6485 87.2215 14.3497 86.3426 14.3497V16.5118C86.8465 16.547 87.1043 16.7755 87.1161 17.1974V17.6017C87.1161 17.9298 86.4891 18.3048 85.2352 18.7267C84.1571 19.1017 83.5418 19.3302 83.3895 19.4122C82.7684 19.8224 82.452 20.4024 82.4403 21.1524V22.0489ZM82.5633 16.8634L84.6024 17.6368C84.6141 16.8985 84.8895 16.5235 85.4286 16.5118V14.3497C84.62 14.3497 83.911 14.6427 83.3016 15.2286C82.8211 15.7208 82.575 16.2657 82.5633 16.8634ZM97.6257 24.3692V17.0743C97.6257 16.4884 97.8835 15.92 98.3991 15.3692C99.0554 14.6895 99.8581 14.3438 100.807 14.3321V16.67C100.339 16.7403 100.075 16.9747 100.016 17.3731V24.3692H97.6257ZM101.616 16.67V14.3321C102.413 14.3438 103.092 14.5606 103.655 14.9825C104.194 14.5489 104.868 14.3321 105.676 14.3321V16.67C105.137 16.6817 104.862 16.9161 104.85 17.3731V24.3692H102.46V17.3731C102.436 16.9161 102.155 16.6817 101.616 16.67ZM106.467 16.67V14.3321C107.604 14.3321 108.501 14.7833 109.157 15.6856C109.508 16.1778 109.684 16.6407 109.684 17.0743V24.3692H107.294V17.3731C107.27 16.9161 106.995 16.6817 106.467 16.67ZM117.452 22.0489C117.452 22.7286 117.774 23.3028 118.418 23.7716C118.969 24.17 119.637 24.3692 120.422 24.3692V22.2071C119.825 22.2071 119.491 22.0665 119.42 21.7852C119.409 21.7149 119.403 21.6446 119.403 21.5743V21.3282C119.415 21.129 119.491 20.9942 119.631 20.9239C119.69 20.8888 119.907 20.8243 120.282 20.7306C121.196 20.4727 121.811 20.2501 122.127 20.0626V21.504C122.127 21.8556 121.963 22.0782 121.635 22.172C121.553 22.1954 121.465 22.2071 121.372 22.2071V24.3692C122.098 24.3575 122.69 24.17 123.147 23.8067C123.581 24.1817 124.155 24.3692 124.87 24.3692V22.1895C124.553 22.1661 124.389 21.9786 124.377 21.627V17.0392C124.377 16.3946 124.108 15.797 123.569 15.2462C122.971 14.6485 122.233 14.3497 121.354 14.3497V16.5118C121.858 16.547 122.116 16.7755 122.127 17.1974V17.6017C122.127 17.9298 121.501 18.3048 120.247 18.7267C119.168 19.1017 118.553 19.3302 118.401 19.4122C117.78 19.8224 117.463 20.4024 117.452 21.1524V22.0489ZM117.575 16.8634L119.614 17.6368C119.626 16.8985 119.901 16.5235 120.44 16.5118V14.3497C119.631 14.3497 118.922 14.6427 118.313 15.2286C117.833 15.7208 117.586 16.2657 117.575 16.8634Z" fill="#F6F6F6"/>
<path d="M53.0714 21.7325L55.2511 21.3282C55.2511 21.7149 55.4504 21.9903 55.8488 22.1544C55.9894 22.2013 56.1183 22.2306 56.2355 22.2423V24.4571C54.8761 24.4571 53.9328 23.9767 53.4054 23.0157C53.1828 22.6173 53.0714 22.1895 53.0714 21.7325ZM53.1769 17.0919C53.1769 16.002 53.6867 15.1935 54.7062 14.6661C55.2101 14.3966 55.7082 14.2618 56.2004 14.2618V16.4415C55.6261 16.4532 55.339 16.67 55.339 17.0919C55.339 17.5372 55.8781 17.9298 56.9562 18.2696C57.3546 18.3985 57.8234 18.5216 58.3625 18.6388C59.1711 18.7911 59.7453 19.2423 60.0851 19.9923C60.2609 20.379 60.3488 20.8067 60.3488 21.2755C60.3488 22.4942 59.8683 23.3907 58.9074 23.9649C58.3566 24.2931 57.7296 24.4571 57.0265 24.4571V22.2423C57.4367 22.2423 57.7414 22.1075 57.9406 21.838C58.0343 21.7091 58.0812 21.5685 58.0812 21.4161C58.0812 21.0528 57.6359 20.7364 56.7453 20.4669C56.6046 20.4317 56.3879 20.3731 56.0949 20.2911C55.4738 20.127 55.0461 19.9923 54.8117 19.8868C53.9562 19.4532 53.4406 18.8145 53.2648 17.9708C53.2062 17.6895 53.1769 17.3966 53.1769 17.0919ZM56.9914 16.4415L57.0089 14.2618C58.0636 14.2618 58.9132 14.6485 59.5578 15.422C59.9679 15.9259 60.173 16.4591 60.173 17.0216L58.0109 17.3907C58.0109 16.8634 57.7296 16.5528 57.1671 16.4591C57.0968 16.4474 57.0382 16.4415 56.9914 16.4415ZM67.7119 21.7325L69.8916 21.3282C69.8916 21.7149 70.0908 21.9903 70.4893 22.1544C70.6299 22.2013 70.7588 22.2306 70.876 22.2423V24.4571C69.5166 24.4571 68.5732 23.9767 68.0459 23.0157C67.8232 22.6173 67.7119 22.1895 67.7119 21.7325ZM67.8174 17.0919C67.8174 16.002 68.3271 15.1935 69.3467 14.6661C69.8506 14.3966 70.3486 14.2618 70.8408 14.2618V16.4415C70.2666 16.4532 69.9795 16.67 69.9795 17.0919C69.9795 17.5372 70.5186 17.9298 71.5967 18.2696C71.9951 18.3985 72.4639 18.5216 73.0029 18.6388C73.8115 18.7911 74.3857 19.2423 74.7256 19.9923C74.9014 20.379 74.9893 20.8067 74.9893 21.2755C74.9893 22.4942 74.5088 23.3907 73.5479 23.9649C72.9971 24.2931 72.3701 24.4571 71.667 24.4571V22.2423C72.0771 22.2423 72.3818 22.1075 72.5811 21.838C72.6748 21.7091 72.7217 21.5685 72.7217 21.4161C72.7217 21.0528 72.2764 20.7364 71.3857 20.4669C71.2451 20.4317 71.0283 20.3731 70.7354 20.2911C70.1143 20.127 69.6865 19.9923 69.4521 19.8868C68.5967 19.4532 68.0811 18.8145 67.9053 17.9708C67.8467 17.6895 67.8174 17.3966 67.8174 17.0919ZM71.6318 16.4415L71.6494 14.2618C72.7041 14.2618 73.5537 14.6485 74.1982 15.422C74.6084 15.9259 74.8135 16.4591 74.8135 17.0216L72.6514 17.3907C72.6514 16.8634 72.3701 16.5528 71.8076 16.4591C71.7373 16.4474 71.6787 16.4415 71.6318 16.4415Z" fill="#CF2828"/>
<path d="M53.7864 54.3692V42.0645H56.2474V54.3692H53.7864ZM57.2142 54.3692V52.2071H57.3021C58.0052 52.2071 58.4739 51.9142 58.7083 51.3282C58.7904 51.1407 58.8314 50.9474 58.8314 50.7481C58.8314 50.1622 58.597 49.7403 58.1282 49.4825C57.8939 49.3536 57.6361 49.2892 57.3548 49.2892H57.2142V47.1446H57.3548C58.0111 47.1446 58.4622 46.8634 58.7083 46.3009C58.7904 46.1017 58.8314 45.8966 58.8314 45.6856C58.8314 45.1114 58.5911 44.6895 58.1107 44.42C57.8646 44.2911 57.595 44.2267 57.3021 44.2267H57.2142V42.0645H57.6361C59.1595 42.0645 60.2318 42.6212 60.8529 43.7345C61.1458 44.2735 61.2923 44.8653 61.2923 45.5099C61.2923 46.5294 60.9818 47.3556 60.3607 47.9884C60.2669 48.0704 60.179 48.1466 60.097 48.2169C60.7767 48.7208 61.1693 49.4884 61.2747 50.5196C61.2864 50.6602 61.2923 50.795 61.2923 50.9239C61.2923 52.0606 60.8939 52.9513 60.097 53.5958C59.4407 54.1114 58.6204 54.3692 57.6361 54.3692H57.2142ZM68.9367 52.0489C68.9367 52.7286 69.2589 53.3028 69.9035 53.7716C70.4543 54.17 71.1222 54.3692 71.9074 54.3692V52.2071C71.3097 52.2071 70.9757 52.0665 70.9054 51.7852C70.8937 51.7149 70.8879 51.6446 70.8879 51.5743V51.3282C70.8996 51.129 70.9757 50.9942 71.1164 50.9239C71.175 50.8888 71.3918 50.8243 71.7668 50.7306C72.6808 50.4727 73.2961 50.2501 73.6125 50.0626V51.504C73.6125 51.8556 73.4484 52.0782 73.1203 52.172C73.0382 52.1954 72.9504 52.2071 72.8566 52.2071V54.3692C73.5832 54.3575 74.175 54.17 74.632 53.8067C75.0656 54.1817 75.6398 54.3692 76.3546 54.3692V52.1895C76.0382 52.1661 75.8742 51.9786 75.8625 51.627V47.0392C75.8625 46.3946 75.5929 45.797 75.0539 45.2462C74.4562 44.6485 73.7179 44.3497 72.839 44.3497V46.5118C73.3429 46.547 73.6007 46.7755 73.6125 47.1974V47.6017C73.6125 47.9298 72.9855 48.3048 71.7316 48.7267C70.6535 49.1017 70.0382 49.3302 69.8859 49.4122C69.2648 49.8224 68.9484 50.4024 68.9367 51.1524V52.0489ZM69.0597 46.8634L71.0988 47.6368C71.1105 46.8985 71.3859 46.5235 71.925 46.5118V44.3497C71.1164 44.3497 70.4074 44.6427 69.798 45.2286C69.3175 45.7208 69.0714 46.2657 69.0597 46.8634ZM99.1668 54.3692V44.3497H101.557V45.4571C101.968 44.9298 102.524 44.5665 103.227 44.3673C103.473 44.297 103.72 44.2618 103.966 44.2618H104.598L104.054 46.6173C103.315 46.629 102.677 46.9513 102.138 47.5841C101.751 48.0411 101.557 48.5157 101.557 49.0079V54.3692H99.1668ZM112.313 42.9259C112.313 42.4454 112.53 42.0821 112.964 41.836C113.163 41.7188 113.374 41.6602 113.596 41.6602C114.089 41.6602 114.458 41.877 114.704 42.3106C114.809 42.5099 114.862 42.7149 114.862 42.9259C114.862 43.4181 114.645 43.7872 114.212 44.0333C114.012 44.1388 113.807 44.1915 113.596 44.1915C113.092 44.1915 112.717 43.9688 112.471 43.5235C112.366 43.336 112.313 43.1368 112.313 42.9259ZM112.436 54.3692V44.877H114.792V54.3692H112.436Z" fill="#F6F6F6"/>
<path d="M84.1924 54.5099V41.7833H86.3896V44.7716C86.624 44.6895 86.9404 44.6485 87.3389 44.6485V46.8106C86.9287 46.8106 86.6299 46.9981 86.4424 47.3731C86.4189 47.42 86.4072 47.4552 86.4072 47.4786V54.5099H84.1924ZM88.2002 46.8106V44.6485C89.3369 44.6485 90.1924 45.0528 90.7666 45.8614C91.083 46.295 91.2412 46.7755 91.2412 47.3028V54.5099H89.0439V47.4786C89.0439 47.3145 88.9502 47.1563 88.7627 47.004C88.6104 46.8751 88.4229 46.8106 88.2002 46.8106Z" fill="#CF2828"/>
</svg>
