<svg width="159" height="69" viewBox="0 0 159 69" fill="none" xmlns="http://www.w3.org/2000/svg">
<rect x="1.5" y="1.5" width="150" height="66" fill="#F6F6F6"/>
<rect x="1.5" y="1.5" width="150" height="66" stroke="black" stroke-width="3"/>
<g clip-path="url(#clip0)">
<path d="M16.857 21.5723V15.7891C16.857 15.168 17.1207 14.5352 17.648 13.8906C18.3511 13.0469 19.2418 12.6191 20.3199 12.6074V15.0859C19.8394 15.0977 19.523 15.3672 19.3707 15.8945C19.3472 15.9766 19.3355 16.0352 19.3355 16.0703V21.5723C19.3355 22.0527 19.5992 22.3809 20.1265 22.5566C20.2086 22.5801 20.2672 22.5918 20.3023 22.5918V25.0879C19.6343 25.0879 18.9664 24.8477 18.2984 24.3672C17.3492 23.6641 16.8687 22.7324 16.857 21.5723ZM21.2691 25.0879V22.5918C21.4566 22.5918 21.6675 22.4922 21.9019 22.293C22.1246 22.0938 22.2418 21.8535 22.2535 21.5723V16.0703C22.2535 15.8594 22.1539 15.6367 21.9547 15.4023C21.7672 15.2031 21.5386 15.0977 21.2691 15.0859V12.6074C22.4527 12.6074 23.4019 13.1172 24.1168 14.1367C24.5269 14.7227 24.732 15.2734 24.732 15.7891V21.5723C24.732 22.873 24.1519 23.8691 22.9918 24.5605C22.3824 24.9121 21.8082 25.0879 21.2691 25.0879ZM32.7279 22.3457V14.9805H35.1186V22.0645C35.142 22.5098 35.4115 22.7383 35.9272 22.75V25.0879C34.7787 25.0879 33.8822 24.6367 33.2377 23.7344C32.8979 23.2539 32.7279 22.791 32.7279 22.3457ZM36.7357 25.0879V22.75C37.2397 22.6914 37.515 22.4629 37.5619 22.0645V14.9805H39.9525V22.3457C39.9525 22.8965 39.6947 23.4531 39.1791 24.0156C38.5229 24.7188 37.7084 25.0762 36.7357 25.0879ZM77.0009 22.6797C77.0009 23.3594 77.3232 23.9336 77.9677 24.4023C78.5185 24.8008 79.1864 25 79.9716 25V22.8379C79.3739 22.8379 79.04 22.6973 78.9697 22.416C78.9579 22.3457 78.9521 22.2754 78.9521 22.2051V21.959C78.9638 21.7598 79.04 21.625 79.1806 21.5547C79.2392 21.5195 79.456 21.4551 79.831 21.3613C80.745 21.1035 81.3603 20.8809 81.6767 20.6934V22.1348C81.6767 22.4863 81.5126 22.709 81.1845 22.8027C81.1025 22.8262 81.0146 22.8379 80.9208 22.8379V25C81.6474 24.9883 82.2392 24.8008 82.6962 24.4375C83.1298 24.8125 83.704 25 84.4189 25V22.8203C84.1025 22.7969 83.9384 22.6094 83.9267 22.2578V17.6699C83.9267 17.0254 83.6572 16.4277 83.1181 15.877C82.5204 15.2793 81.7822 14.9805 80.9032 14.9805V17.1426C81.4072 17.1777 81.665 17.4062 81.6767 17.8281V18.2324C81.6767 18.5605 81.0497 18.9355 79.7958 19.3574C78.7177 19.7324 78.1025 19.9609 77.9501 20.043C77.329 20.4531 77.0126 21.0332 77.0009 21.7832V22.6797ZM77.1239 17.4941L79.163 18.2676C79.1747 17.5293 79.4501 17.1543 79.9892 17.1426V14.9805C79.1806 14.9805 78.4716 15.2734 77.8622 15.8594C77.3818 16.3516 77.1357 16.8965 77.1239 17.4941ZM92.1863 25V17.7051C92.1863 17.1191 92.4441 16.5508 92.9597 16C93.616 15.3203 94.4187 14.9746 95.3679 14.9629V17.3008C94.8992 17.3711 94.6355 17.6055 94.5769 18.0039V25H92.1863ZM96.1765 17.3008V14.9629C96.9734 14.9746 97.6531 15.1914 98.2156 15.6133C98.7547 15.1797 99.4285 14.9629 100.237 14.9629V17.3008C99.698 17.3125 99.4226 17.5469 99.4109 18.0039V25H97.0203V18.0039C96.9968 17.5469 96.7156 17.3125 96.1765 17.3008ZM101.028 17.3008V14.9629C102.165 14.9629 103.061 15.4141 103.718 16.3164C104.069 16.8086 104.245 17.2715 104.245 17.7051V25H101.854V18.0039C101.831 17.5469 101.555 17.3125 101.028 17.3008ZM112.012 22.6797C112.012 23.3594 112.335 23.9336 112.979 24.4023C113.53 24.8008 114.198 25 114.983 25V22.8379C114.385 22.8379 114.051 22.6973 113.981 22.416C113.969 22.3457 113.963 22.2754 113.963 22.2051V21.959C113.975 21.7598 114.051 21.625 114.192 21.5547C114.251 21.5195 114.467 21.4551 114.842 21.3613C115.756 21.1035 116.372 20.8809 116.688 20.6934V22.1348C116.688 22.4863 116.524 22.709 116.196 22.8027C116.114 22.8262 116.026 22.8379 115.932 22.8379V25C116.659 24.9883 117.251 24.8008 117.708 24.4375C118.141 24.8125 118.715 25 119.43 25V22.8203C119.114 22.7969 118.95 22.6094 118.938 22.2578V17.6699C118.938 17.0254 118.669 16.4277 118.129 15.877C117.532 15.2793 116.794 14.9805 115.915 14.9805V17.1426C116.419 17.1777 116.676 17.4062 116.688 17.8281V18.2324C116.688 18.5605 116.061 18.9355 114.807 19.3574C113.729 19.7324 113.114 19.9609 112.962 20.043C112.34 20.4531 112.024 21.0332 112.012 21.7832V22.6797ZM112.135 17.4941L114.174 18.2676C114.186 17.5293 114.462 17.1543 115.001 17.1426V14.9805C114.192 14.9805 113.483 15.2734 112.874 15.8594C112.393 16.3516 112.147 16.8965 112.135 17.4941Z" fill="black"/>
<path d="M47.6321 22.3633L49.8118 21.959C49.8118 22.3457 50.011 22.6211 50.4094 22.7852C50.55 22.832 50.6789 22.8613 50.7961 22.873V25.0879C49.4368 25.0879 48.4934 24.6074 47.9661 23.6465C47.7434 23.248 47.6321 22.8203 47.6321 22.3633ZM47.7375 17.7227C47.7375 16.6328 48.2473 15.8242 49.2668 15.2969C49.7707 15.0273 50.2688 14.8926 50.761 14.8926V17.0723C50.1868 17.084 49.8997 17.3008 49.8997 17.7227C49.8997 18.168 50.4387 18.5605 51.5168 18.9004C51.9153 19.0293 52.384 19.1523 52.9231 19.2695C53.7317 19.4219 54.3059 19.873 54.6457 20.623C54.8215 21.0098 54.9094 21.4375 54.9094 21.9062C54.9094 23.125 54.4289 24.0215 53.468 24.5957C52.9172 24.9238 52.2903 25.0879 51.5872 25.0879V22.873C51.9973 22.873 52.302 22.7383 52.5012 22.4688C52.595 22.3398 52.6418 22.1992 52.6418 22.0469C52.6418 21.6836 52.1965 21.3672 51.3059 21.0977C51.1653 21.0625 50.9485 21.0039 50.6555 20.9219C50.0344 20.7578 49.6067 20.623 49.3723 20.5176C48.5168 20.084 48.0012 19.4453 47.8254 18.6016C47.7668 18.3203 47.7375 18.0273 47.7375 17.7227ZM51.552 17.0723L51.5696 14.8926C52.6243 14.8926 53.4739 15.2793 54.1184 16.0527C54.5286 16.5566 54.7336 17.0898 54.7336 17.6523L52.5715 18.0215C52.5715 17.4941 52.2903 17.1836 51.7278 17.0898C51.6575 17.0781 51.5989 17.0723 51.552 17.0723ZM62.2725 22.3633L64.4522 21.959C64.4522 22.3457 64.6514 22.6211 65.0499 22.7852C65.1905 22.832 65.3194 22.8613 65.4366 22.873V25.0879C64.0772 25.0879 63.1339 24.6074 62.6065 23.6465C62.3839 23.248 62.2725 22.8203 62.2725 22.3633ZM62.378 17.7227C62.378 16.6328 62.8878 15.8242 63.9073 15.2969C64.4112 15.0273 64.9093 14.8926 65.4014 14.8926V17.0723C64.8272 17.084 64.5401 17.3008 64.5401 17.7227C64.5401 18.168 65.0792 18.5605 66.1573 18.9004C66.5557 19.0293 67.0245 19.1523 67.5636 19.2695C68.3722 19.4219 68.9464 19.873 69.2862 20.623C69.462 21.0098 69.5499 21.4375 69.5499 21.9062C69.5499 23.125 69.0694 24.0215 68.1085 24.5957C67.5577 24.9238 66.9307 25.0879 66.2276 25.0879V22.873C66.6378 22.873 66.9425 22.7383 67.1417 22.4688C67.2354 22.3398 67.2823 22.1992 67.2823 22.0469C67.2823 21.6836 66.837 21.3672 65.9464 21.0977C65.8057 21.0625 65.5889 21.0039 65.296 20.9219C64.6749 20.7578 64.2472 20.623 64.0128 20.5176C63.1573 20.084 62.6417 19.4453 62.4659 18.6016C62.4073 18.3203 62.378 18.0273 62.378 17.7227ZM66.1925 17.0723L66.21 14.8926C67.2647 14.8926 68.1143 15.2793 68.7589 16.0527C69.169 16.5566 69.3741 17.0898 69.3741 17.6523L67.212 18.0215C67.212 17.4941 66.9307 17.1836 66.3682 17.0898C66.2979 17.0781 66.2393 17.0723 66.1925 17.0723Z" fill="#CF2828"/>
<path d="M48.7864 55V42.6953H51.2474V55H48.7864ZM52.2142 55V52.8379H52.3021C53.0052 52.8379 53.4739 52.5449 53.7083 51.959C53.7904 51.7715 53.8314 51.5781 53.8314 51.3789C53.8314 50.793 53.597 50.3711 53.1282 50.1133C52.8939 49.9844 52.6361 49.9199 52.3548 49.9199H52.2142V47.7754H52.3548C53.0111 47.7754 53.4622 47.4941 53.7083 46.9316C53.7904 46.7324 53.8314 46.5273 53.8314 46.3164C53.8314 45.7422 53.5911 45.3203 53.1107 45.0508C52.8646 44.9219 52.595 44.8574 52.3021 44.8574H52.2142V42.6953H52.6361C54.1595 42.6953 55.2318 43.252 55.8529 44.3652C56.1458 44.9043 56.2923 45.4961 56.2923 46.1406C56.2923 47.1602 55.9818 47.9863 55.3607 48.6191C55.2669 48.7012 55.179 48.7773 55.097 48.8477C55.7767 49.3516 56.1693 50.1191 56.2747 51.1504C56.2864 51.291 56.2923 51.4258 56.2923 51.5547C56.2923 52.6914 55.8939 53.582 55.097 54.2266C54.4407 54.7422 53.6204 55 52.6361 55H52.2142ZM63.9367 52.6797C63.9367 53.3594 64.2589 53.9336 64.9035 54.4023C65.4543 54.8008 66.1222 55 66.9074 55V52.8379C66.3097 52.8379 65.9757 52.6973 65.9054 52.416C65.8937 52.3457 65.8879 52.2754 65.8879 52.2051V51.959C65.8996 51.7598 65.9757 51.625 66.1164 51.5547C66.175 51.5195 66.3918 51.4551 66.7668 51.3613C67.6808 51.1035 68.2961 50.8809 68.6125 50.6934V52.1348C68.6125 52.4863 68.4484 52.709 68.1203 52.8027C68.0382 52.8262 67.9504 52.8379 67.8566 52.8379V55C68.5832 54.9883 69.175 54.8008 69.632 54.4375C70.0656 54.8125 70.6398 55 71.3546 55V52.8203C71.0382 52.7969 70.8742 52.6094 70.8625 52.2578V47.6699C70.8625 47.0254 70.5929 46.4277 70.0539 45.877C69.4562 45.2793 68.7179 44.9805 67.839 44.9805V47.1426C68.3429 47.1777 68.6007 47.4062 68.6125 47.8281V48.2324C68.6125 48.5605 67.9855 48.9355 66.7316 49.3574C65.6535 49.7324 65.0382 49.9609 64.8859 50.043C64.2648 50.4531 63.9484 51.0332 63.9367 51.7832V52.6797ZM64.0597 47.4941L66.0988 48.2676C66.1105 47.5293 66.3859 47.1543 66.925 47.1426V44.9805C66.1164 44.9805 65.4074 45.2734 64.798 45.8594C64.3175 46.3516 64.0714 46.8965 64.0597 47.4941ZM94.1668 55V44.9805H96.5575V46.0879C96.9676 45.5605 97.5243 45.1973 98.2274 44.998C98.4735 44.9277 98.7196 44.8926 98.9657 44.8926H99.5985L99.0536 47.248C98.3153 47.2598 97.6766 47.582 97.1375 48.2148C96.7508 48.6719 96.5575 49.1465 96.5575 49.6387V55H94.1668ZM107.313 43.5566C107.313 43.0762 107.53 42.7129 107.964 42.4668C108.163 42.3496 108.374 42.291 108.596 42.291C109.089 42.291 109.458 42.5078 109.704 42.9414C109.809 43.1406 109.862 43.3457 109.862 43.5566C109.862 44.0488 109.645 44.418 109.212 44.6641C109.012 44.7695 108.807 44.8223 108.596 44.8223C108.092 44.8223 107.717 44.5996 107.471 44.1543C107.366 43.9668 107.313 43.7676 107.313 43.5566ZM107.436 55V45.5078H109.792V55H107.436Z" fill="black"/>
<path d="M79.1924 55.1406V42.4141H81.3896V45.4023C81.624 45.3203 81.9404 45.2793 82.3389 45.2793V47.4414C81.9287 47.4414 81.6299 47.6289 81.4424 48.0039C81.4189 48.0508 81.4072 48.0859 81.4072 48.1094V55.1406H79.1924ZM83.2002 47.4414V45.2793C84.3369 45.2793 85.1924 45.6836 85.7666 46.4922C86.083 46.9258 86.2412 47.4062 86.2412 47.9336V55.1406H84.0439V48.1094C84.0439 47.9453 83.9502 47.7871 83.7627 47.6348C83.6104 47.5059 83.4229 47.4414 83.2002 47.4414Z" fill="#CF2828"/>
</g>
<defs>
<clipPath id="clip0">
<rect width="159" height="49" fill="white" transform="translate(0 9)"/>
</clipPath>
</defs>
</svg>
